<svg xmlns="http://www.w3.org/2000/svg" viewBox="0 0 785 105"><g fill="#1d1d1b"><path d="M98.91 0H75v50h35V10.5zm5.34 31v.1a2.48 2.48 0 01-2.47 2.07 3.79 3.79 0 01-1.59-.38h-.06c-1.36-.86-2.76-1.81-4.17-2.85a26.1 26.1 0 00-9.22 2l-.16.62c-1 3.55-2.85 3.94-3.62 3.94a1.68 1.68 0 01-.34 0h-.11a1.75 1.75 0 01-1.06-1 3 3 0 01.2-2.23l.15-.27a11.86 11.86 0 013.2-2.51c.58-2.26 1.58-6.18 2-8.22l-.88-.89c-1.2-1.34-1.65-2.52-1.35-3.53a2.45 2.45 0 011.66-1.56 2.1 2.1 0 012.08.56c.72.79 1 2.31.77 4.52v.18a87.19 87.19 0 007.38 6.28h1.49c1.64 0 2.74.09 2.94.11a4 4 0 012.67 1.16 2.44 2.44 0 01.49 1.9zM98.5 10.48v-7l7.67 7.05z"/><path d="M93.38 28c-1.91-1.54-3.54-3-4.66-4-.38 1.65-.92 3.79-1.34 5.47a27.15 27.15 0 016.05-1.35L93.3 28zM785 50h-35V0h23.91L785 10.5zm-3.83-39.52l-7.67-7v7.05zM23.91 0H0v50h35V10.5zm0 35h-4.59l-2.88-11.48L13 35H8.46L4.93 17.57h4l2.28 11 2.75-11h4.91l2.83 11.06 2.25-11h4.11zm-.41-24.52v-7l7.67 7.05zM173.91 0H150v50h35V10.5zm-1.35 39.86l-5.08-7.6-2.29 3.42H168l2.54 4.17H156l8.35-12.3-7.4-11.06h6.18l4.36 6.43 4.37-6.43H178l-7.4 11.06 8.4 12.31zm.94-29.38v-7l7.67 7.05zM248.91 0H225v50h35V10.5zM250 37.78v3.6l-16.09-2.86V16.86L250 14zm-1.5-27.3v-7l7.67 7.05z"/><path d="M240.68 29.31a11.28 11.28 0 001.7-.16 2.63 2.63 0 002-2.09 3.49 3.49 0 00-.64-3.37 1.58 1.58 0 00-.94-.51c-1.24-.06-2.47 0-3.72 0v9.21h1.62zm0-4.49a1.55 1.55 0 011.59.35 1.92 1.92 0 01.07 1.85c-.39.68-1 .55-1.66.5zM309.2 38a1.2 1.2 0 00-1.09.83 5.4 5.4 0 00-.39 2.26 5.84 5.84 0 00.37 2.29c.25.56.59.83 1 .83s.77-.28 1-.85a5.62 5.62 0 00.39-2.29 5.29 5.29 0 00-.39-2.27c-.21-.55-.52-.8-.89-.8z"/><path d="M323.91 0H300v50h35V10.5zm1.68 27a7.4 7.4 0 01-5.13 4.91 16 16 0 01-5.6.83 25.14 25.14 0 00-2.51.19 11.81 11.81 0 00-2.21 1c-1.28.72-1.92.39-1.92.39a15.37 15.37 0 01-2.22-1.54c-.31-.44.32-.58.32-.58a37.62 37.62 0 007.16-1.46 16.66 16.66 0 002-1.3l6.28-6.81a11.27 11.27 0 00.77-1.22l.88-2.23c.79-1.55 1.8-1.32 1.8-1.32.78 0 1.49.93 1.49.93l1.2.39-.8.33a1 1 0 00-.74.66c-.29 0-.29 3.23-.29 3.23a11.11 11.11 0 01-.48 3.6zm-2.37-14c-1.55 2-1.69 8.43-1.71 8.93a7 7 0 00-3.81-4.45zm-12 4.74a8.27 8.27 0 016.27.68 7.15 7.15 0 013.29 4.26l-6 6.45a8.66 8.66 0 00-5.09-4.19 8.23 8.23 0 00-4.67 0zm.61 27.19a3.33 3.33 0 01-2.79 1.45 3.09 3.09 0 01-2.75-1.51 6.71 6.71 0 01-1-3.74 7.61 7.61 0 01.48-2.78 4.13 4.13 0 011.33-1.88 2.94 2.94 0 011.8-.64 3.49 3.49 0 012.92 1.4 6.17 6.17 0 011.07 3.82 6.33 6.33 0 01-1.03 3.88zm7.95-.14a3.67 3.67 0 01-3.13 1.43H314V36h3a3.74 3.74 0 012.23.63 3.42 3.42 0 011.26 1.79 8.1 8.1 0 01.38 2.57 6.22 6.22 0 01-1.06 3.8zm8.26-6.72H326v8.15h-2.38v-8.15h-2V36h6.45zm-4.54-27.59v-7l7.67 7.05z"/><path d="M316.72 38h-.32v6.24h.17q1.86 0 1.86-3.36a4.77 4.77 0 00-.4-2.09 1.38 1.38 0 00-1.31-.79zM698.91 0H675v50h35V10.5zm-.41 3.43l7.67 7.05h-7.67zm-14.38 42.79h-2.39v-4.28h-1.89v4.28h-2.37V36h2.37v4h1.89v-4h2.39zm7.7-8.15h-2.07v8.15h-2.38v-8.15h-2V36h6.45zm9.32 8.15h-2.33v-3.83c0-1 0-2 .12-2.94h-.17a19.44 19.44 0 01-.61 2l-1 3-1-3a20.19 20.19 0 01-.61-2h-.18q.12 1.38.12 2.94v3.83h-2.32V36h2.6l1.43 3.91 1.34-3.91h2.61zm7.29 0h-5.67V36h2.39v8.13h3.28zM459.2 38a1.2 1.2 0 00-1.09.83 5.4 5.4 0 00-.39 2.26 5.84 5.84 0 00.37 2.29c.25.56.59.83 1 .83s.77-.28 1-.85a5.62 5.62 0 00.39-2.29 5.29 5.29 0 00-.39-2.27c-.21-.55-.52-.8-.89-.8z"/><path d="M473.91 0H450v50h35V10.5zm1.68 27a7.4 7.4 0 01-5.13 4.91 16 16 0 01-5.6.83 25.14 25.14 0 00-2.51.19 11.81 11.81 0 00-2.21 1c-1.28.72-1.92.39-1.92.39a15.37 15.37 0 01-2.22-1.54c-.31-.44.32-.58.32-.58a37.62 37.62 0 007.16-1.46 16.66 16.66 0 002-1.3l6.28-6.81a11.27 11.27 0 00.77-1.22l.88-2.23c.79-1.55 1.8-1.32 1.8-1.32.78 0 1.49.93 1.49.93l1.2.39-.8.33a1 1 0 00-.74.66c-.29 0-.29 3.23-.29 3.23a11.11 11.11 0 01-.48 3.6zm-2.37-14c-1.55 2-1.69 8.43-1.71 8.93a7 7 0 00-3.81-4.45zm-12 4.74a8.27 8.27 0 016.27.68 7.15 7.15 0 013.29 4.26l-6 6.45a8.66 8.66 0 00-5.09-4.19 8.23 8.23 0 00-4.67 0zm.61 27.19a3.35 3.35 0 01-2.79 1.45 3.09 3.09 0 01-2.75-1.51 6.71 6.71 0 01-1-3.74 7.61 7.61 0 01.48-2.78 4.13 4.13 0 011.33-1.88 2.94 2.94 0 011.8-.64 3.49 3.49 0 012.92 1.4 6.17 6.17 0 011.07 3.82 6.33 6.33 0 01-1.03 3.88zm7.95-.14a3.67 3.67 0 01-3.13 1.43H464V36h3a3.74 3.74 0 012.23.63 3.42 3.42 0 011.26 1.79 8.1 8.1 0 01.38 2.57 6.22 6.22 0 01-1.06 3.8zm8.44-4.43a2.57 2.57 0 01-1.07 1.27 3.71 3.71 0 01-2.07.54h-.8v4h-2.38V36h3.64a3 3 0 012.19.76 2.85 2.85 0 01.78 2.15 4.15 4.15 0 01-.26 1.45zm-4.72-29.88v-7l7.67 7.05z"/><path d="M466.72 38h-.32v6.24h.17q1.86 0 1.86-3.36a4.77 4.77 0 00-.4-2.09 1.38 1.38 0 00-1.31-.79zM475 38h-.73v2.19h.52a1.32 1.32 0 00.93-.31 1.06 1.06 0 00.35-.85 1 1 0 00-.27-.78 1.11 1.11 0 00-.8-.25zM623.17 38h-.74v2.19h.57a1.32 1.32 0 00.93-.31 1.06 1.06 0 00.35-.85 1 1 0 00-.27-.78 1.09 1.09 0 00-.84-.25z"/><path d="M623.91 0H600v50h35V10.5zm-18.38 10.13h6v2h-6zm0 3.25h6v2h-6zm0 3.4h6v2h-6zm.2 12.65q.85-4.21 1.72-8.43s1.1-2 2.5 0l1.43 8.43a2.83 2.83 0 01-5.65 0zm9.32 16.79h-6.52v-2.08l3.47-6.07h-3.07V36h5.83v2.07l-3.45 6.07h3.78zm3.58 0h-2.41V36h2.41zm7.75-5.86a2.54 2.54 0 01-1.08 1.27 3.71 3.71 0 01-2.07.54h-.8v4H620V36h3.64a3 3 0 012.19.76 2.88 2.88 0 01.77 2.15 4.38 4.38 0 01-.22 1.45zm-2.88-29.88v-7l7.67 7.05z"/><path d="M609.72 29.69a1.16 1.16 0 10-1.16 1.15 1.16 1.16 0 001.16-1.15zM548.91 0H525v50h35V10.5zm-11 26.69a1.74 1.74 0 00-1.24-.57 1.45 1.45 0 00-1.31.83 4.93 4.93 0 00-.48 2.42 4.26 4.26 0 00.48 2.17 1.44 1.44 0 001.27.82 2.19 2.19 0 001.28-.55v2.3a4.05 4.05 0 01-1.68.41 3.16 3.16 0 01-2.74-1.5 6.48 6.48 0 01-1-3.73 7.77 7.77 0 01.44-2.61 4.3 4.3 0 011.35-2 3.25 3.25 0 012.09-.73 3.77 3.77 0 011.56.37zm6 6.83a3.43 3.43 0 01-2.5 1 5.45 5.45 0 01-2.46-.68v-2.53a3.42 3.42 0 002.23 1.1 1.31 1.31 0 00.91-.35 1.08 1.08 0 00.11-1.54 3.81 3.81 0 00-1-.69 5.14 5.14 0 01-1.64-1.18 2.4 2.4 0 01-.57-1.65 2.88 2.88 0 01.9-2.15 3.23 3.23 0 012.36-.87 4.71 4.71 0 012.1.54V27a2.75 2.75 0 00-1.85-.93 1.19 1.19 0 00-.76.26.79.79 0 00-.32.64.85.85 0 00.26.63 3.47 3.47 0 00.95.57 5.13 5.13 0 011.75 1.17 2.64 2.64 0 01.59 1.8 3.28 3.28 0 01-1.09 2.38zm6.4.84h-2.36l-2.49-10.21H548l1.12 6.71 1.17-6.71h2.59zm-1.81-23.88v-7l7.67 7.05zM391.72 38h-.32v6.24h.17q1.86 0 1.86-3.36a4.77 4.77 0 00-.4-2.09 1.38 1.38 0 00-1.31-.79zM383.94 38a1.2 1.2 0 00-1.1.82 5.63 5.63 0 00-.38 2.27 5.91 5.91 0 00.37 2.29c.25.55.59.83 1 .83s.78-.29 1-.86a5.58 5.58 0 00.38-2.28 5.31 5.31 0 00-.39-2.28c-.2-.54-.51-.79-.88-.79z"/><path d="M398.91 0H375v50h35V10.5zm-.69 13c-1.55 2-1.69 8.43-1.71 8.93a7 7 0 00-3.81-4.45zm-12 4.74a8.27 8.27 0 016.27.68 7.15 7.15 0 013.29 4.26l-6 6.45a8.66 8.66 0 00-5.09-4.19 8.23 8.23 0 00-4.67 0zm.35 27.19a3.32 3.32 0 01-2.79 1.45 3.09 3.09 0 01-2.75-1.5 6.74 6.74 0 01-1-3.74 7.63 7.63 0 01.48-2.79 4.19 4.19 0 011.33-1.88 3 3 0 011.8-.64 3.49 3.49 0 012.92 1.4 6.18 6.18 0 011.07 3.83 6.3 6.3 0 01-1.03 3.87zm8.21-.14a3.67 3.67 0 01-3.13 1.43H389V36h3a3.74 3.74 0 012.23.63 3.42 3.42 0 011.26 1.79 8.1 8.1 0 01.38 2.57 6.22 6.22 0 01-1.06 3.8zm6.88.58a3.42 3.42 0 01-2.49 1 5.29 5.29 0 01-2.46-.69v-2.52a3.38 3.38 0 002.22 1.1 1.38 1.38 0 00.92-.34 1.1 1.1 0 00.38-.84 1 1 0 00-.27-.7 3.54 3.54 0 00-1-.69 5.19 5.19 0 01-1.64-1.19 2.4 2.4 0 01-.57-1.65 2.88 2.88 0 01.89-2.15 3.23 3.23 0 012.36-.87 4.75 4.75 0 012.11.54v2.44a2.79 2.79 0 00-1.86-.93 1.21 1.21 0 00-.76.26.82.82 0 00-.32.64.86.86 0 00.26.63 3 3 0 001 .57 5.33 5.33 0 011.74 1.17 2.65 2.65 0 01.59 1.8 3.26 3.26 0 01-1.07 2.42zm.34-25.86a1 1 0 00-.74.66c-.29 0-.29 3.23-.29 3.23a11.11 11.11 0 01-.4 3.59 7.4 7.4 0 01-5.13 4.91 16 16 0 01-5.6.83 25.14 25.14 0 00-2.51.19 11.81 11.81 0 00-2.21 1c-1.28.72-1.92.39-1.92.39a15.37 15.37 0 01-2.2-1.53c-.31-.44.32-.58.32-.58a37.62 37.62 0 007.16-1.46 16.66 16.66 0 002-1.3l6.28-6.81a11.27 11.27 0 00.77-1.22l.88-2.23c.79-1.55 1.8-1.32 1.8-1.32.78 0 1.49.93 1.49.93l1.2.39zm-3.52-9v-7l7.67 7.05z"/></g><path d="M98.91 55H75v50h35V65.5zm5.34 31v.1a2.47 2.47 0 01-2.47 2.07 3.79 3.79 0 01-1.59-.38h-.06c-1.36-.86-2.76-1.81-4.17-2.85a26.1 26.1 0 00-9.22 2l-.16.62c-1 3.55-2.85 3.94-3.62 3.94a1.68 1.68 0 01-.34 0h-.11a1.75 1.75 0 01-1.06-1 3 3 0 01.2-2.23l.15-.27a11.86 11.86 0 013.2-2.51c.58-2.26 1.58-6.18 2-8.22l-.88-.89c-1.2-1.34-1.65-2.52-1.35-3.53a2.45 2.45 0 011.66-1.56 2.1 2.1 0 012.08.56c.72.79 1 2.31.77 4.52v.18a87.19 87.19 0 007.38 6.28h1.49c1.64 0 2.74.1 2.94.11a4 4 0 012.67 1.16 2.44 2.44 0 01.49 1.9zM98.5 65.48v-7.05l7.67 7.05z" fill="#fff"/><path d="M93.38 83c-1.91-1.54-3.54-3-4.66-4-.38 1.65-.92 3.79-1.34 5.47a27.15 27.15 0 016.05-1.35L93.3 83zM785 105h-35V55h23.91L785 65.5zm-3.83-39.52l-7.67-7.05v7.05zM23.91 55H0v50h35V65.5zm0 35h-4.59l-2.88-11.48L13 90H8.46L4.93 72.57h4l2.28 11 2.75-11h4.91l2.83 11.06 2.25-11h4.11zm-.41-24.52v-7.05l7.67 7.05zM173.91 55H150v50h35V65.5zm-1.35 39.86l-5.08-7.6-2.29 3.42H168l2.54 4.17H156l8.35-12.3-7.4-11.06h6.18l4.36 6.43 4.37-6.43H178l-7.4 11.06 8.4 12.31zm.94-29.38v-7.05l7.67 7.05zM248.91 55H225v50h35V65.5zM250 92.78v3.6l-16.09-2.86V71.86L250 69zm-1.5-27.3v-7.05l7.67 7.05z" fill="#fff"/><path d="M240.68 84.31a11.28 11.28 0 001.7-.16 2.63 2.63 0 002-2.09 3.49 3.49 0 00-.64-3.37 1.58 1.58 0 00-.94-.51c-1.24-.06-2.47 0-3.72 0v9.21h1.62zm0-4.49a1.55 1.55 0 011.59.35 1.92 1.92 0 01.07 1.85c-.39.68-1 .55-1.66.5zM309.2 93a1.2 1.2 0 00-1.09.83 5.4 5.4 0 00-.39 2.26 5.84 5.84 0 00.37 2.29c.25.56.59.83 1 .83s.77-.28 1-.85a5.62 5.62 0 00.39-2.29 5.29 5.29 0 00-.39-2.27c-.21-.55-.52-.8-.89-.8z" fill="#fff"/><path d="M323.91 55H300v50h35V65.5zm1.68 27a7.4 7.4 0 01-5.13 4.91 16 16 0 01-5.6.83 25.14 25.14 0 00-2.51.19 11.81 11.81 0 00-2.21 1c-1.28.72-1.92.39-1.92.39a15.37 15.37 0 01-2.22-1.54c-.31-.44.32-.58.32-.58a37.62 37.62 0 007.16-1.46 16.66 16.66 0 002-1.3l6.28-6.81a11.27 11.27 0 00.77-1.22l.88-2.23c.79-1.55 1.8-1.32 1.8-1.32.78 0 1.49.93 1.49.93l1.2.39-.8.33a1 1 0 00-.74.66c-.29 0-.29 3.23-.29 3.23a11.11 11.11 0 01-.48 3.6zm-2.37-14c-1.55 2-1.69 8.43-1.71 8.93a7 7 0 00-3.81-4.45zm-12 4.74a8.27 8.27 0 016.27.68 7.15 7.15 0 013.29 4.26l-6 6.45a8.66 8.66 0 00-5.09-4.19 8.23 8.23 0 00-4.67 0zm.61 27.19a3.33 3.33 0 01-2.79 1.45 3.1 3.1 0 01-2.75-1.5 6.77 6.77 0 01-1-3.75 7.61 7.61 0 01.48-2.78 4.13 4.13 0 011.33-1.88 2.94 2.94 0 011.8-.64 3.49 3.49 0 012.92 1.4 6.17 6.17 0 011.07 3.82 6.33 6.33 0 01-1.03 3.88zm7.95-.14a3.67 3.67 0 01-3.13 1.43H314V91h3a3.74 3.74 0 012.23.63 3.42 3.42 0 011.26 1.79 8.1 8.1 0 01.38 2.57 6.2 6.2 0 01-1.06 3.8zm8.26-6.72H326v8.15h-2.38v-8.15h-2V91h6.45zm-4.54-27.59v-7.05l7.67 7.05z" fill="#fff"/><path d="M316.72 93h-.32v6.24h.17q1.86 0 1.86-3.36a4.77 4.77 0 00-.4-2.09 1.38 1.38 0 00-1.31-.79zM698.91 55H675v50h35V65.5zm-.41 3.43l7.67 7.05h-7.67zm-14.38 42.79h-2.39v-4.28h-1.89v4.28h-2.37V91h2.37v4h1.89v-4h2.39zm7.7-8.15h-2.07v8.15h-2.38v-8.15h-2V91h6.45zm9.32 8.15h-2.33v-3.83c0-1 0-2 .12-2.94h-.17a19.44 19.44 0 01-.61 2l-1 3-1-3a20.19 20.19 0 01-.61-2h-.18q.12 1.38.12 2.94v3.83h-2.32V91h2.6l1.43 3.91 1.34-3.91h2.61zm7.29 0h-5.67V91h2.39v8.13h3.28zM459.2 93a1.2 1.2 0 00-1.09.83 5.4 5.4 0 00-.39 2.26 5.84 5.84 0 00.37 2.29c.25.56.59.83 1 .83s.77-.28 1-.85a5.62 5.62 0 00.39-2.29 5.29 5.29 0 00-.39-2.27c-.21-.55-.52-.8-.89-.8z" fill="#fff"/><path d="M473.91 55H450v50h35V65.5zm1.68 27a7.4 7.4 0 01-5.13 4.91 16 16 0 01-5.6.83 25.14 25.14 0 00-2.51.19 11.81 11.81 0 00-2.21 1c-1.28.72-1.92.39-1.92.39a15.37 15.37 0 01-2.22-1.54c-.31-.44.32-.58.32-.58a37.62 37.62 0 007.16-1.46 16.66 16.66 0 002-1.3l6.28-6.81a11.27 11.27 0 00.77-1.22l.88-2.23c.79-1.55 1.8-1.32 1.8-1.32.78 0 1.49.93 1.49.93l1.2.39-.8.33a1 1 0 00-.74.66c-.29 0-.29 3.23-.29 3.23a11.11 11.11 0 01-.48 3.6zm-2.37-14c-1.55 2-1.69 8.43-1.71 8.93a7 7 0 00-3.81-4.45zm-12 4.74a8.27 8.27 0 016.27.68 7.15 7.15 0 013.29 4.26l-6 6.45a8.66 8.66 0 00-5.09-4.19 8.23 8.23 0 00-4.67 0zm.61 27.19a3.35 3.35 0 01-2.79 1.45 3.1 3.1 0 01-2.75-1.5 6.77 6.77 0 01-1-3.75 7.61 7.61 0 01.48-2.78 4.13 4.13 0 011.33-1.88 2.94 2.94 0 011.8-.64 3.49 3.49 0 012.92 1.4 6.17 6.17 0 011.07 3.82 6.33 6.33 0 01-1.03 3.88zm7.95-.14a3.67 3.67 0 01-3.13 1.43H464V91h3a3.74 3.74 0 012.23.63 3.42 3.42 0 011.26 1.79 8.1 8.1 0 01.38 2.57 6.2 6.2 0 01-1.06 3.8zm8.44-4.43a2.57 2.57 0 01-1.07 1.27 3.71 3.71 0 01-2.07.54h-.8v4h-2.38V91h3.64a3 3 0 012.19.76 2.85 2.85 0 01.78 2.15 4.15 4.15 0 01-.26 1.45zm-4.72-29.88v-7.05l7.67 7.05z" fill="#fff"/><path d="M466.72 93h-.32v6.24h.17q1.86 0 1.86-3.36a4.77 4.77 0 00-.4-2.09 1.38 1.38 0 00-1.31-.79zM475 93h-.73v2.19h.52a1.32 1.32 0 00.93-.31 1.06 1.06 0 00.35-.85 1 1 0 00-.27-.78 1.11 1.11 0 00-.8-.25zM623.17 93h-.74v2.19h.57a1.32 1.32 0 00.93-.31 1.06 1.06 0 00.35-.85 1 1 0 00-.27-.78 1.09 1.09 0 00-.84-.25z" fill="#fff"/><path d="M623.91 55H600v50h35V65.5zm-18.38 10.13h6v2h-6zm0 3.25h6v2h-6zm0 3.4h6v2h-6zm.2 12.65q.85-4.22 1.72-8.43s1.1-2 2.5 0l1.43 8.43a2.83 2.83 0 01-5.65 0zm9.32 16.79h-6.52v-2.08l3.47-6.07h-3.07V91h5.83v2.07l-3.45 6.07h3.78zm3.58 0h-2.41V91h2.41zm7.75-5.86a2.54 2.54 0 01-1.08 1.27 3.71 3.71 0 01-2.07.54h-.8v4H620V91h3.64a3 3 0 012.19.76 2.88 2.88 0 01.77 2.15 4.38 4.38 0 01-.22 1.45zm-2.88-29.88v-7.05l7.67 7.05z" fill="#fff"/><path d="M609.72 84.69a1.16 1.16 0 10-1.16 1.15 1.16 1.16 0 001.16-1.15zM548.91 55H525v50h35V65.5zm-11 26.69a1.74 1.74 0 00-1.24-.57 1.45 1.45 0 00-1.31.83 4.93 4.93 0 00-.48 2.42 4.26 4.26 0 00.48 2.17 1.44 1.44 0 001.27.82 2.19 2.19 0 001.28-.55v2.3a4.05 4.05 0 01-1.68.41 3.16 3.16 0 01-2.74-1.5 6.48 6.48 0 01-1-3.73 7.77 7.77 0 01.44-2.61 4.3 4.3 0 011.35-2 3.25 3.25 0 012.09-.73 3.77 3.77 0 011.56.37zm6 6.83a3.43 3.43 0 01-2.5 1 5.45 5.45 0 01-2.46-.68v-2.53a3.42 3.42 0 002.23 1.1 1.31 1.31 0 00.91-.35 1.08 1.08 0 00.11-1.54 3.81 3.81 0 00-1-.69 5.14 5.14 0 01-1.64-1.18 2.4 2.4 0 01-.57-1.65 2.88 2.88 0 01.9-2.15 3.23 3.23 0 012.36-.87 4.71 4.71 0 012.1.54V82a2.75 2.75 0 00-1.85-.93 1.19 1.19 0 00-.76.26.79.79 0 00-.32.64.85.85 0 00.26.63 3.47 3.47 0 00.95.57 5.13 5.13 0 011.75 1.17 2.64 2.64 0 01.59 1.8 3.28 3.28 0 01-1.09 2.38zm6.4.84h-2.36l-2.49-10.21H548l1.12 6.71 1.17-6.71h2.59zm-1.81-23.88v-7.05l7.67 7.05zM391.72 93h-.32v6.24h.17q1.86 0 1.86-3.36a4.77 4.77 0 00-.4-2.09 1.38 1.38 0 00-1.31-.79zM383.94 93a1.2 1.2 0 00-1.1.82 5.63 5.63 0 00-.38 2.27 5.91 5.91 0 00.37 2.29c.25.55.59.83 1 .83s.78-.29 1-.86a5.58 5.58 0 00.38-2.28 5.31 5.31 0 00-.39-2.28c-.2-.54-.51-.79-.88-.79z" fill="#fff"/><path d="M398.91 55H375v50h35V65.5zm-.69 13c-1.55 2-1.69 8.43-1.71 8.93a7 7 0 00-3.81-4.45zm-12 4.74a8.27 8.27 0 016.27.68 7.15 7.15 0 013.29 4.26l-6 6.45a8.66 8.66 0 00-5.09-4.19 8.23 8.23 0 00-4.67 0zm.35 27.19a3.32 3.32 0 01-2.79 1.45 3.09 3.09 0 01-2.75-1.5 6.74 6.74 0 01-1-3.74 7.63 7.63 0 01.48-2.79 4.19 4.19 0 011.33-1.88 3 3 0 011.8-.64 3.49 3.49 0 012.92 1.4 6.18 6.18 0 011.07 3.83 6.3 6.3 0 01-1.03 3.87zm8.21-.14a3.67 3.67 0 01-3.13 1.43H389V91h3a3.74 3.74 0 012.23.63 3.42 3.42 0 011.26 1.79 8.1 8.1 0 01.38 2.57 6.2 6.2 0 01-1.06 3.8zm6.88.58a3.42 3.42 0 01-2.49 1 5.29 5.29 0 01-2.46-.69v-2.53a3.38 3.38 0 002.22 1.1 1.33 1.33 0 00.92-.34 1.1 1.1 0 00.38-.84 1 1 0 00-.27-.7 3.54 3.54 0 00-1-.69 5.19 5.19 0 01-1.64-1.19 2.4 2.4 0 01-.57-1.65 2.88 2.88 0 01.89-2.15 3.23 3.23 0 012.36-.87 4.75 4.75 0 012.11.54v2.44a2.79 2.79 0 00-1.86-.93 1.21 1.21 0 00-.76.26.82.82 0 00-.32.64.86.86 0 00.26.63 3 3 0 001 .57 5.33 5.33 0 011.74 1.17 2.65 2.65 0 01.59 1.8 3.26 3.26 0 01-1.07 2.43zm.34-25.86a1 1 0 00-.74.66c-.29 0-.29 3.23-.29 3.23a11.11 11.11 0 01-.4 3.59 7.4 7.4 0 01-5.13 4.91 16 16 0 01-5.6.83 25.14 25.14 0 00-2.51.19 11.81 11.81 0 00-2.21 1c-1.28.72-1.92.39-1.92.39a15.37 15.37 0 01-2.2-1.53c-.31-.44.32-.58.32-.58a37.62 37.62 0 007.16-1.46 16.66 16.66 0 002-1.3l6.28-6.81a11.27 11.27 0 00.77-1.22l.88-2.23c.79-1.55 1.8-1.32 1.8-1.32.78 0 1.49.93 1.49.93l1.2.39zm-3.52-9v-7.08l7.67 7.05z" fill="#fff"/></svg>